<svg xmlns="http://www.w3.org/2000/svg" width="71.198" height="80" viewBox="0 0 71.198 80">
  <path id="Icon" d="M-110.04,264.884l-.007,0-3.531-1.518v-2.538A31.25,31.25,0,0,0-134.5,231.236l-.339-.118v-3.466a1.165,1.165,0,0,0-1.163-1.164h-17.874a1.166,1.166,0,0,0-1.164,1.164v3.483l-.339.118a31.246,31.246,0,0,0-20.924,29.587V263.4l-3.5,1.484a1.16,1.16,0,0,0-.711,1.071v8.77a1.166,1.166,0,0,0,1.164,1.164h2.678v3.847a1.166,1.166,0,0,0,1.164,1.164h6.384l.1.373a24.788,24.788,0,0,0,2.439,5.86l.194.336-4.517,4.518a1.165,1.165,0,0,0,0,1.641l7.1,7.1a1.165,1.165,0,0,0,1.64,0l4.517-4.516.336.194a24.714,24.714,0,0,0,5.844,2.439l.372.1v6.384a1.166,1.166,0,0,0,1.165,1.163h10.022a1.166,1.166,0,0,0,1.164-1.163v-6.384l.373-.1a24.709,24.709,0,0,0,5.86-2.439l.336-.194,4.518,4.517a1.165,1.165,0,0,0,1.64,0l7.1-7.1a1.166,1.166,0,0,0,0-1.641l-4.517-4.517.193-.336a24.785,24.785,0,0,0,2.44-5.86l.1-.373h6.383a1.165,1.165,0,0,0,1.164-1.164v-3.847h2.678a1.166,1.166,0,0,0,1.164-1.164v-8.77A1.163,1.163,0,0,0-110.04,264.884Zm-27.13-36.052v28.925h-15.544l-.034-28.925Zm15.63,49.738a1.2,1.2,0,0,0-1.176.919,22.4,22.4,0,0,1-3.127,7.52,1.168,1.168,0,0,0,.152,1.454l4.35,4.351-5.5,5.458-4.349-4.35a1.169,1.169,0,0,0-1.453-.15,22.43,22.43,0,0,1-7.52,3.127,1.168,1.168,0,0,0-.92,1.165v6.146h-7.694v-6.186a1.17,1.17,0,0,0-.92-1.176,22.29,22.29,0,0,1-7.519-3.127,1.171,1.171,0,0,0-1.455.153l-4.349,4.349-5.443-5.444,4.35-4.35a1.169,1.169,0,0,0,.151-1.454,22.392,22.392,0,0,1-3.176-7.482,1.159,1.159,0,0,0-1.165-.923h-6.08v-2.683h16.222l.054.445a13.166,13.166,0,0,0,4.984,8.839,13.16,13.16,0,0,0,9.775,2.725,13.229,13.229,0,0,0,11.562-11.564l.055-.445h16.234l.026,2.683Zm-34.27-2.683h21.769l-.1.587a10.854,10.854,0,0,1-4.394,7.118,10.845,10.845,0,0,1-6.372,2.07,10.994,10.994,0,0,1-1.767-.144,10.913,10.913,0,0,1-9.046-9.044Zm44.18-2.328H-178.2v-6.837l3.529-1.518a1.16,1.16,0,0,0,.713-1.072v-3.34a28.74,28.74,0,0,1,18.226-26.947l.693-.275v25.351a1.166,1.166,0,0,0,1.164,1.163h17.906a1.165,1.165,0,0,0,1.165-1.163V233.57l.693.275a28.734,28.734,0,0,1,18.242,26.982v3.339a1.16,1.16,0,0,0,.71,1.07l3.533,1.519Z" transform="translate(180.516 -226.488)" fill="#d3951e"/>
</svg>
