<svg xmlns="http://www.w3.org/2000/svg" width="80.024" height="80" viewBox="0 0 80.024 80">
  <path id="Icon" d="M163.518,181.728l24.835,8.19a1.24,1.24,0,0,0,1.566-1.565l-8.284-25.043-.22-.287-11.292-11.292,22.1-22.1a1.238,1.238,0,0,0,0-1.752L177.284,112.93a1.268,1.268,0,0,0-1.753,0L158.27,130.19a1.24,1.24,0,0,0,1.754,1.754l16.383-16.384,13.19,13.19-6.682,6.683-4.951-4.952a1.24,1.24,0,1,0-1.753,1.754l4.95,4.951-5.867,5.868-4.952-4.951a1.266,1.266,0,0,0-1.753,0,1.238,1.238,0,0,0,0,1.752l4.952,4.953-5.172,5.171-32.454-32.455a10.495,10.495,0,0,0-14.84,0l-3.55,3.551a10.5,10.5,0,0,0,0,14.84l17.51,17.51-22.105,22.1a1.241,1.241,0,0,0,0,1.754l14.944,14.943a1.271,1.271,0,0,0,1.754,0l18.2-18.205a1.24,1.24,0,0,0,0-1.753,1.268,1.268,0,0,0-1.753,0l-1.271,1.271-4.952-4.952a1.24,1.24,0,0,0-1.753,1.754l4.952,4.951-5.869,5.868-4.951-4.951a1.24,1.24,0,0,0-1.753,1.753l4.951,4.951-6.682,6.683-13.191-13.19,21.229-21.229,26.257,26.257-.41.659h0l.526-.558-.371.676h0l.479-.6Zm23.275,5.065-20.57-6.781,13.789-13.789Zm-67.515-52.631a8.025,8.025,0,0,1,0-11.334l3.55-3.55a8.015,8.015,0,0,1,11.334,0l5.32,5.321-7.294,7.294a1.24,1.24,0,0,0,0,1.753,1.268,1.268,0,0,0,1.753,0l7.294-7.294,37.57,37.57L163.922,178.8Z" transform="translate(-112.567 -112.578)" fill="#d3951e"/>
</svg>
