<svg xmlns="http://www.w3.org/2000/svg" width="67.474" height="81" viewBox="0 0 67.474 81">
  <path id="Icon" d="M-14998.879,365a1.125,1.125,0,0,1-1.122-1.122v-15.37a13.845,13.845,0,0,1,13.831-13.827h38.815a13.844,13.844,0,0,1,13.827,13.827v15.37a1.122,1.122,0,0,1-1.122,1.122Zm51.977-2.244h11.132V348.506a11.572,11.572,0,0,0-10.285-11.512l-.847-.094Zm-37.479-16.217v16.217h35.235V336.923h-28.162V350.37h21.089v-7.857a1.122,1.122,0,0,1,1.122-1.122,1.122,1.122,0,0,1,1.118,1.122v8.975a1.119,1.119,0,0,1-1.118,1.122h-23.329a1.122,1.122,0,0,1-1.121-1.122V336.923h-6.622a11.6,11.6,0,0,0-11.587,11.583v14.249h11.135V346.538a1.122,1.122,0,0,1,1.118-1.122A1.125,1.125,0,0,1-14984.382,346.538Zm5.955,11.836a1.121,1.121,0,0,1-1.121-1.118,1.122,1.122,0,0,1,1.121-1.122h23.329a1.119,1.119,0,0,1,1.118,1.122,1.118,1.118,0,0,1-1.118,1.118Zm12.242-28.388a13.662,13.662,0,0,1-13.334-10.507,1.117,1.117,0,0,1,.132-.847,1.132,1.132,0,0,1,.7-.5,1.046,1.046,0,0,1,.26-.03,1.124,1.124,0,0,1,1.092.858,11.428,11.428,0,0,0,11.154,8.786h.253a11.48,11.48,0,0,0,11.47-11.467V311.72h-29.63a1.122,1.122,0,0,1-1.118-1.122,1.122,1.122,0,0,1,1.118-1.122h2.2v-5.519a15.685,15.685,0,0,1,8.256-13.808l.4-.218v-3.81a1.125,1.125,0,0,1,1.122-1.122,1.125,1.125,0,0,1,1.122,1.122v2.869l.952-.241a15.646,15.646,0,0,1,3.832-.474h.3a15.7,15.7,0,0,1,3.836.474l.948.241v-2.869A1.125,1.125,0,0,1-14960,285a1.125,1.125,0,0,1,1.122,1.122v3.81l.4.218a15.685,15.685,0,0,1,8.256,13.808v5.519h2.2a1.125,1.125,0,0,1,1.122,1.122,1.125,1.125,0,0,1-1.122,1.122h-4.2v4.555a13.727,13.727,0,0,1-13.71,13.71Zm-8.285-36.617a13.372,13.372,0,0,0-5.177,10.59v5.519h27.176v-5.519a13.366,13.366,0,0,0-5.176-10.59l-1.234-.967v2.308a1.125,1.125,0,0,1-1.122,1.122,1.125,1.125,0,0,1-1.122-1.122v-3.32l-.52-.173a13.4,13.4,0,0,0-4.265-.7h-.3a13.391,13.391,0,0,0-4.265.7l-.52.173v3.32a1.125,1.125,0,0,1-1.122,1.122,1.125,1.125,0,0,1-1.122-1.122V292.4Z" transform="translate(15000.501 -284.5)" fill="#d3951e" stroke="rgba(0,0,0,0)" stroke-width="1"/>
</svg>
